# Blender v2.78 (sub 0) OBJ File: ''
# www.blender.org
v 0.171165 0.000000 1.877347
v 0.171165 0.000000 0.703997
v 0.167877 0.033393 1.877347
v 0.167876 0.033393 0.703997
v 0.158136 0.065502 1.877347
v 0.158136 0.065502 0.703997
v 0.142319 0.095094 1.877347
v 0.142319 0.095094 0.703997
v 0.121032 0.121032 1.877347
v 0.121032 0.121032 0.703997
v 0.095095 0.142319 1.877347
v 0.095094 0.142319 0.703997
v 0.065502 0.158136 1.877347
v 0.065502 0.158136 0.703997
v 0.033393 0.167876 1.877347
v 0.033393 0.167876 0.703997
v 0.000000 0.171165 1.877347
v 0.000000 0.171165 0.703997
v -0.033392 0.167876 1.877347
v -0.033393 0.167876 0.703997
v -0.065502 0.158136 1.877347
v -0.065502 0.158136 0.703997
v -0.095094 0.142319 1.877347
v -0.095094 0.142319 0.703997
v -0.121032 0.121032 1.877347
v -0.121032 0.121032 0.703997
v -0.142318 0.095094 1.877347
v -0.142319 0.095094 0.703997
v -0.158136 0.065502 1.877347
v -0.158136 0.065502 0.703997
v -0.167876 0.033393 1.877347
v -0.167876 0.033393 0.703997
v -0.171165 -0.000000 1.877347
v -0.171165 -0.000000 0.703997
v -0.167876 -0.033393 1.877347
v -0.167876 -0.033393 0.703997
v -0.158135 -0.065502 1.877347
v -0.158136 -0.065502 0.703997
v -0.142318 -0.095094 1.877347
v -0.142318 -0.095094 0.703997
v -0.121032 -0.121032 1.877347
v -0.121032 -0.121032 0.703997
v -0.095094 -0.142319 1.877347
v -0.095094 -0.142319 0.703997
v -0.065502 -0.158136 1.877347
v -0.065502 -0.158136 0.703997
v -0.033392 -0.167876 1.877347
v -0.033392 -0.167876 0.703997
v 0.000001 -0.171165 1.877347
v 0.000000 -0.171165 0.703997
v 0.033393 -0.167876 1.877347
v 0.033393 -0.167876 0.703997
v 0.065503 -0.158136 1.877347
v 0.065502 -0.158136 0.703997
v 0.095095 -0.142318 1.877347
v 0.095094 -0.142318 0.703997
v 0.121032 -0.121032 1.877347
v 0.121032 -0.121032 0.703997
v 0.142319 -0.095094 1.877347
v 0.142319 -0.095094 0.703997
v 0.158136 -0.065502 1.877347
v 0.158136 -0.065502 0.703997
v 0.167877 -0.033392 1.877347
v 0.167876 -0.033392 0.703997
vn 1.0000 0.0000 0.0000
vn 0.7139 0.1420 0.6857
vn 0.7278 0.0000 0.6857
vn 0.9808 0.1951 0.0000
vn 0.6725 0.2785 0.6857
vn 0.8314 0.5556 0.0000
vn 0.6052 0.4044 0.6857
vn 0.5147 0.5147 0.6857
vn 0.7071 0.7071 0.0000
vn 0.4044 0.6052 0.6857
vn 0.5556 0.8314 0.0000
vn 0.2785 0.6725 0.6857
vn 0.3827 0.9239 0.0000
vn 0.1420 0.7139 0.6857
vn 0.1951 0.9808 0.0000
vn 0.0000 0.7279 0.6857
vn 0.0000 1.0000 0.0000
vn -0.1420 0.7139 0.6857
vn -0.1951 0.9808 0.0000
vn -0.2785 0.6725 0.6857
vn -0.3827 0.9239 0.0000
vn -0.4044 0.6052 0.6857
vn -0.5556 0.8314 0.0000
vn -0.5147 0.5147 0.6857
vn -0.7071 0.7071 0.0000
vn -0.6052 0.4044 0.6857
vn -0.8314 0.5556 0.0000
vn -0.6725 0.2785 0.6857
vn -0.9239 0.3827 0.0000
vn -0.7139 0.1420 0.6857
vn -0.9808 0.1951 0.0000
vn -0.7279 0.0000 0.6857
vn -1.0000 0.0000 0.0000
vn -0.7139 -0.1420 0.6857
vn -0.9808 -0.1951 0.0000
vn -0.6724 -0.2785 0.6857
vn -0.9239 -0.3827 0.0000
vn -0.6052 -0.4044 0.6857
vn -0.8314 -0.5556 0.0000
vn -0.5147 -0.5147 0.6857
vn -0.5556 -0.8314 0.0000
vn -0.4044 -0.6052 0.6857
vn -0.2785 -0.6725 0.6857
vn -0.3827 -0.9239 0.0000
vn -0.1420 -0.7139 0.6857
vn -0.1951 -0.9808 0.0000
vn 0.0000 -0.7279 0.6857
vn 0.1951 -0.9808 0.0000
vn 0.1420 -0.7139 0.6857
vn 0.2785 -0.6725 0.6857
vn 0.3827 -0.9239 0.0000
vn 0.4044 -0.6052 0.6857
vn 0.5556 -0.8314 0.0000
vn 0.5147 -0.5147 0.6857
vn 0.7071 -0.7071 0.0000
vn 0.6052 -0.4044 0.6857
vn 0.8314 -0.5556 0.0000
vn 0.6725 -0.2785 0.6857
vn 0.9239 -0.3827 0.0000
vn 0.7139 -0.1420 0.6857
vn 0.9808 -0.1951 0.0000
vn 0.9239 0.3827 0.0000
vn -0.7071 -0.7071 0.0000
vn 0.0000 -1.0000 0.0000
s 1
f 2//1 3//2 1//3
f 4//4 5//5 3//2
f 5//5 8//6 7//7
f 8//6 9//8 7//7
f 10//9 11//10 9//8
f 12//11 13//12 11//10
f 14//13 15//14 13//12
f 16//15 17//16 15//14
f 18//17 19//18 17//16
f 20//19 21//20 19//18
f 22//21 23//22 21//20
f 24//23 25//24 23//22
f 26//25 27//26 25//24
f 28//27 29//28 27//26
f 30//29 31//30 29//28
f 32//31 33//32 31//30
f 34//33 35//34 33//32
f 36//35 37//36 35//34
f 38//37 39//38 37//36
f 40//39 41//40 39//38
f 41//40 44//41 43//42
f 44//41 45//43 43//42
f 46//44 47//45 45//43
f 48//46 49//47 47//45
f 49//47 52//48 51//49
f 52//48 53//50 51//49
f 54//51 55//52 53//50
f 56//53 57//54 55//52
f 58//55 59//56 57//54
f 60//57 61//58 59//56
f 62//59 63//60 61//58
f 64//61 1//3 63//60
f 39//38 47//45 63//60
f 2//1 4//4 3//2
f 4//4 6//62 5//5
f 5//5 6//62 8//6
f 8//6 10//9 9//8
f 10//9 12//11 11//10
f 12//11 14//13 13//12
f 14//13 16//15 15//14
f 16//15 18//17 17//16
f 18//17 20//19 19//18
f 20//19 22//21 21//20
f 22//21 24//23 23//22
f 24//23 26//25 25//24
f 26//25 28//27 27//26
f 28//27 30//29 29//28
f 30//29 32//31 31//30
f 32//31 34//33 33//32
f 34//33 36//35 35//34
f 36//35 38//37 37//36
f 38//37 40//39 39//38
f 40//39 42//63 41//40
f 41//40 42//63 44//41
f 44//41 46//44 45//43
f 46//44 48//46 47//45
f 48//46 50//64 49//47
f 49//47 50//64 52//48
f 52//48 54//51 53//50
f 54//51 56//53 55//52
f 56//53 58//55 57//54
f 58//55 60//57 59//56
f 60//57 62//59 61//58
f 62//59 64//61 63//60
f 64//61 2//1 1//3
f 63//60 1//3 3//2
f 3//2 5//5 7//7
f 7//7 9//8 15//14
f 11//10 13//12 15//14
f 15//14 17//16 19//18
f 19//18 21//20 15//14
f 23//22 25//24 31//30
f 27//26 29//28 31//30
f 31//30 33//32 35//34
f 35//34 37//36 31//30
f 39//38 41//40 43//42
f 43//42 45//43 47//45
f 47//45 49//47 51//49
f 51//49 53//50 47//45
f 55//52 57//54 59//56
f 59//56 61//58 55//52
f 63//60 3//2 15//14
f 9//8 11//10 15//14
f 15//14 21//20 23//22
f 25//24 27//26 31//30
f 31//30 37//36 39//38
f 39//38 43//42 47//45
f 47//45 53//50 55//52
f 55//52 61//58 63//60
f 3//2 7//7 15//14
f 15//14 23//22 31//30
f 31//30 39//38 63//60
f 47//45 55//52 63//60
f 63//60 15//14 31//30
v 0.351999 0.000000 0.703997
v 0.345235 0.068671 0.703997
v 0.325204 0.134704 0.703997
v 0.292676 0.195560 0.703997
v 0.248901 0.248900 0.703997
v 0.195560 0.292676 0.703997
v 0.134704 0.325204 0.703997
v 0.068672 0.345235 0.703997
v 0.000000 0.351998 0.703997
v 0.000000 0.000000 0.000000
v -0.068671 0.345235 0.703997
v -0.134704 0.325204 0.703997
v -0.195560 0.292676 0.703997
v -0.248900 0.248900 0.703997
v -0.292676 0.195560 0.703997
v -0.325204 0.134704 0.703997
v -0.345235 0.068671 0.703997
v -0.351998 -0.000000 0.703997
v -0.345235 -0.068672 0.703997
v -0.325204 -0.134704 0.703997
v -0.292676 -0.195560 0.703997
v -0.248900 -0.248901 0.703997
v -0.195559 -0.292676 0.703997
v -0.134703 -0.325204 0.703997
v -0.068671 -0.345235 0.703997
v 0.000001 -0.351998 0.703997
v 0.068672 -0.345235 0.703997
v 0.134705 -0.325204 0.703997
v 0.195560 -0.292676 0.703997
v 0.248901 -0.248900 0.703997
v 0.292677 -0.195559 0.703997
v 0.325205 -0.134704 0.703997
v 0.345235 -0.068671 0.703997
vn 0.8641 0.0000 0.5033
vn 0.0000 0.0000 -1.0000
vn 0.8475 0.1686 0.5033
vn 0.7983 0.3307 0.5033
vn 0.7185 0.4801 0.5033
vn 0.6110 0.6110 0.5033
vn 0.4801 0.7185 0.5033
vn 0.3307 0.7983 0.5033
vn 0.1686 0.8475 0.5033
vn 0.0000 0.8641 0.5033
vn -0.1686 0.8475 0.5033
vn -0.3307 0.7983 0.5033
vn -0.4801 0.7185 0.5033
vn -0.6110 0.6110 0.5033
vn -0.7185 0.4801 0.5033
vn -0.7983 0.3307 0.5033
vn -0.8475 0.1686 0.5033
vn -0.8641 0.0000 0.5033
vn -0.8475 -0.1686 0.5033
vn -0.7983 -0.3307 0.5033
vn -0.7185 -0.4801 0.5033
vn -0.6110 -0.6110 0.5033
vn -0.4801 -0.7185 0.5033
vn -0.3307 -0.7983 0.5033
vn -0.1686 -0.8475 0.5033
vn 0.0000 -0.8641 0.5033
vn 0.1686 -0.8475 0.5033
vn 0.3307 -0.7983 0.5033
vn 0.4801 -0.7185 0.5033
vn 0.6110 -0.6110 0.5033
vn 0.7185 -0.4801 0.5033
vn 0.7983 -0.3307 0.5033
vn 0.8475 -0.1686 0.5033
s 1
f 65//65 74//66 66//67
f 66//67 74//66 67//68
f 67//68 74//66 68//69
f 68//69 74//66 69//70
f 69//70 74//66 70//71
f 70//71 74//66 71//72
f 71//72 74//66 72//73
f 72//73 74//66 73//74
f 73//74 74//66 75//75
f 75//75 74//66 76//76
f 76//76 74//66 77//77
f 77//77 74//66 78//78
f 78//78 74//66 79//79
f 79//79 74//66 80//80
f 80//80 74//66 81//81
f 81//81 74//66 82//82
f 82//82 74//66 83//83
f 83//83 74//66 84//84
f 84//84 74//66 85//85
f 85//85 74//66 86//86
f 86//86 74//66 87//87
f 87//87 74//66 88//88
f 88//88 74//66 89//89
f 89//89 74//66 90//90
f 90//90 74//66 91//91
f 91//91 74//66 92//92
f 92//92 74//66 93//93
f 93//93 74//66 94//94
f 94//94 74//66 95//95
f 95//95 74//66 96//96
f 96//96 74//66 97//97
f 97//97 74//66 65//65
f 81//81 89//89 97//97
f 97//97 65//65 66//67
f 66//67 67//68 68//69
f 68//69 69//70 72//73
f 70//71 71//72 72//73
f 72//73 73//74 75//75
f 75//75 76//76 77//77
f 77//77 78//78 81//81
f 79//79 80//80 81//81
f 81//81 82//82 83//83
f 83//83 84//84 81//81
f 85//85 86//86 87//87
f 87//87 88//88 89//89
f 89//89 90//90 91//91
f 91//91 92//92 93//93
f 93//93 94//94 95//95
f 95//95 96//96 97//97
f 97//97 66//67 68//69
f 69//70 70//71 72//73
f 72//73 75//75 81//81
f 78//78 79//79 81//81
f 81//81 84//84 85//85
f 85//85 87//87 81//81
f 89//89 91//91 93//93
f 93//93 95//95 97//97
f 97//97 68//69 72//73
f 75//75 77//77 81//81
f 81//81 87//87 89//89
f 89//89 93//93 97//97
f 97//97 72//73 81//81
